<svg width="45" height="45" viewBox="0 0 45 45" fill="none" xmlns="http://www.w3.org/2000/svg">
<path d="M33.2126 21.4286C36.3388 21.4286 39.337 22.6703 41.5476 24.8805C43.7581 27.0908 45 30.0885 45 33.2143C45 36.3401 43.7581 39.3378 41.5476 41.548C39.337 43.7583 36.3388 45 33.2126 45C30.0864 45 27.0882 43.7583 24.8777 41.548C22.6671 39.3378 21.4252 36.3401 21.4252 33.2143C21.4252 30.0885 22.6671 27.0908 24.8777 24.8805C27.0882 22.6703 30.0864 21.4286 33.2126 21.4286ZM21.4724 25.7143C20.83 26.7161 20.3193 27.7964 19.9528 28.9286H4.82212C4.39582 28.9286 3.98697 29.0979 3.68553 29.3993C3.38409 29.7007 3.21474 30.1095 3.21474 30.5357V32.4814C3.21474 33.885 3.82769 35.22 4.89499 36.1371C7.59108 38.4536 11.6524 39.6471 17.1389 39.6471C18.4226 39.6471 19.6271 39.5829 20.7565 39.4521C21.2902 40.5236 21.9631 41.5157 22.7475 42.4093C21.0287 42.7093 19.1577 42.8593 17.1389 42.8593C10.9451 42.8593 6.14874 41.4536 2.79897 38.5736C1.92126 37.8195 1.21679 36.8847 0.733714 35.8333C0.25064 34.7819 0.000364418 33.6385 0 32.4814V30.5357C0 29.257 0.508043 28.0306 1.41237 27.1264C2.31669 26.2223 3.54321 25.7143 4.82212 25.7143H21.4724ZM33.2126 25.7143L33.0197 25.7314C32.8056 25.7705 32.6085 25.8739 32.4546 26.0278C32.3007 26.1817 32.1973 26.3788 32.1582 26.5929L32.141 26.7857V32.1429H26.7788L26.5859 32.1621C26.3718 32.2013 26.1747 32.3046 26.0208 32.4585C25.8669 32.6124 25.7635 32.8095 25.7244 33.0236L25.7072 33.2164L25.7244 33.4093C25.7639 33.623 25.8675 33.8196 26.0213 33.9731C26.1752 34.1265 26.3721 34.2296 26.5859 34.2686L26.7788 34.2857H32.141L32.1432 39.6514L32.1603 39.8443C32.1994 40.0584 32.3028 40.2555 32.4567 40.4093C32.6106 40.5632 32.8077 40.6666 33.0219 40.7057L33.2147 40.7229L33.4076 40.7057C33.6217 40.6666 33.8189 40.5632 33.9728 40.4093C34.1267 40.2555 34.2301 40.0584 34.2692 39.8443L34.2863 39.6514V34.2857H39.6507L39.8435 34.2686C40.0577 34.2295 40.2548 34.1261 40.4087 33.9722C40.5626 33.8183 40.666 33.6212 40.7051 33.4071L40.7222 33.2143L40.7051 33.0214C40.6656 32.8077 40.562 32.6111 40.4082 32.4576C40.2543 32.3042 40.0574 32.2011 39.8435 32.1621L39.6507 32.1429H34.2842V26.7857L34.2692 26.5929C34.2301 26.3788 34.1267 26.1817 33.9728 26.0278C33.8189 25.8739 33.6217 25.7705 33.4076 25.7314L33.2126 25.7143ZM17.1389 0C17.5273 1.63776e-05 17.9026 0.140663 18.1953 0.395929C18.488 0.651196 18.6784 1.00381 18.7312 1.38857L18.7462 1.60714V3.21429H26.2473C27.5262 3.21429 28.7527 3.72226 29.6571 4.62645C30.5614 5.53064 31.0694 6.75699 31.0694 8.03571V17.6893C31.0694 18.3343 30.9408 18.9493 30.7115 19.5129C28.3502 19.9403 26.1405 20.9741 24.2992 22.5129H8.03043C6.75153 22.5129 5.525 22.0049 4.62068 21.1007C3.71636 20.1965 3.20832 18.9701 3.20832 17.6914V8.03571C3.20832 6.75699 3.71636 5.53064 4.62068 4.62645C5.525 3.72226 6.75153 3.21429 8.03043 3.21429H15.5315V1.60929C15.5314 1.25768 15.6467 0.915748 15.8596 0.635908C16.0725 0.356068 16.3713 0.153762 16.7102 0.0600003L16.9203 0.0171426L17.1389 0ZM26.2473 6.42857H8.03043C7.60413 6.42857 7.19529 6.59789 6.89385 6.89929C6.59241 7.20069 6.42306 7.60947 6.42306 8.03571V17.6871C6.42306 18.5743 7.14316 19.2943 8.03043 19.2943H26.2473C26.6736 19.2943 27.0825 19.125 27.3839 18.8236C27.6853 18.5222 27.8547 18.1134 27.8547 17.6871V8.03571C27.8547 7.60947 27.6853 7.20069 27.3839 6.89929C27.0825 6.59789 26.6736 6.42857 26.2473 6.42857ZM12.3168 9.64286C12.6773 9.62843 13.037 9.68697 13.3744 9.81497C13.7117 9.94297 14.0197 10.1378 14.2799 10.3877C14.5401 10.6377 14.7471 10.9376 14.8886 11.2695C15.03 11.6015 15.1028 11.9585 15.1028 12.3193C15.1028 12.6801 15.03 13.0371 14.8886 13.369C14.7471 13.7009 14.5401 14.0009 14.2799 14.2508C14.0197 14.5008 13.7117 14.6956 13.3744 14.8236C13.037 14.9516 12.6773 15.0101 12.3168 14.9957C11.6197 14.976 10.9577 14.6853 10.4716 14.1853C9.98552 13.6853 9.71357 13.0155 9.71357 12.3182C9.71357 11.6209 9.98552 10.9511 10.4716 10.4512C10.9577 9.95118 11.6197 9.66258 12.3168 9.64286ZM21.9438 9.64286C22.3044 9.62843 22.6641 9.68697 23.0015 9.81497C23.3388 9.94297 23.6468 10.1378 23.907 10.3877C24.1672 10.6377 24.3742 10.9376 24.5156 11.2695C24.657 11.6015 24.7299 11.9585 24.7299 12.3193C24.7299 12.6801 24.657 13.0371 24.5156 13.369C24.3742 13.7009 24.1672 14.0009 23.907 14.2508C23.6468 14.5008 23.3388 14.6956 23.0015 14.8236C22.6641 14.9516 22.3044 15.0101 21.9438 14.9957C21.2467 14.976 20.5848 14.6853 20.0987 14.1853C19.6126 13.6853 19.3407 13.0155 19.3407 12.3182C19.3407 11.6209 19.6126 10.9511 20.0987 10.4512C20.5848 9.95118 21.2467 9.66258 21.9438 9.64286Z" fill="#E31B4D"/>
</svg>
