<svg width="40" height="41" viewBox="0 0 40 41" fill="none" xmlns="http://www.w3.org/2000/svg">
<path d="M34.6875 19.625H31.875V12.125C31.875 10.0531 30.1969 8.375 28.125 8.375H20.625V5.5625C20.625 2.975 18.525 0.875 15.9375 0.875C13.35 0.875 11.25 2.975 11.25 5.5625V8.375H3.75C1.67812 8.375 0.01875 10.0531 0.01875 12.125L0.00937521 19.25H2.8125C5.60625 19.25 7.875 21.5187 7.875 24.3125C7.875 27.1063 5.60625 29.375 2.8125 29.375H0.00937521L0 36.5C0 38.5719 1.67812 40.25 3.75 40.25H10.875V37.4375C10.875 34.6437 13.1437 32.375 15.9375 32.375C18.7313 32.375 21 34.6437 21 37.4375V40.25H28.125C30.1969 40.25 31.875 38.5719 31.875 36.5V29H34.6875C37.275 29 39.375 26.9 39.375 24.3125C39.375 21.725 37.275 19.625 34.6875 19.625Z" fill="#E31B4D"/>
</svg>
