<svg width="45" height="45" viewBox="0 0 45 45" fill="none" xmlns="http://www.w3.org/2000/svg">
<g clip-path="url(#clip0_24_22)">
<path fill-rule="evenodd" clip-rule="evenodd" d="M26.0273 31.1286C30.4117 30.6108 35.075 29.0167 35.075 21.4437C35.075 19.2913 34.317 17.5372 33.0825 16.1818C33.2816 15.6641 33.9187 13.7108 32.8422 11.0009C32.8422 11.0009 31.2479 10.4825 27.502 12.9933C25.9078 12.5554 24.1543 12.2759 22.5202 12.2759C20.8456 12.2759 19.0915 12.5554 17.5371 12.9933C13.7506 10.4825 12.1564 11.0009 12.1564 11.0009C11.0805 13.7108 11.7185 15.6641 11.9175 16.1818C10.6817 17.5371 9.92443 19.2913 9.92443 21.4437C9.92443 29.0167 14.5876 30.6108 18.9721 31.1286C18.4145 31.6078 17.8962 32.5237 17.697 33.7993C16.5807 34.2773 13.6709 35.1944 11.9175 32.1652C11.9175 32.1652 10.8809 30.2923 8.92819 30.1729C8.92819 30.1729 6.97491 30.133 8.76885 31.3675C8.76885 31.3675 10.0837 31.9662 10.9611 34.2374C10.9611 34.2374 12.1564 38.0245 17.6565 36.8284V40.2159C17.6565 40.735 17.2584 41.3323 16.2621 41.1731C8.44972 38.582 2.83008 31.1683 2.83008 22.4798C2.83008 11.5983 11.6381 2.79035 22.5202 2.79035C33.3613 2.79035 42.2097 11.5984 42.1699 22.4798C42.1699 31.1683 36.5497 38.5421 28.7378 41.1731C27.7409 41.3722 27.3427 40.7749 27.3427 40.2159V34.7563C27.3428 32.9218 26.7441 31.7272 26.0273 31.1286ZM45 22.5202C45 10.0837 34.9157 0 22.5202 0C10.0837 0 0 10.0837 0 22.5202C0 34.9157 10.0837 45 22.5202 45C34.9157 45 45 34.9157 45 22.5202Z" fill="#E31B4D"/>
</g>
<defs>
<clipPath id="clip0_24_22">
<rect width="45" height="45" fill="white"/>
</clipPath>
</defs>
</svg>
