<svg width="73" height="73" viewBox="0 0 73 73" fill="none" xmlns="http://www.w3.org/2000/svg">
<g clip-path="url(#clip0_13_19)">
<path fill-rule="evenodd" clip-rule="evenodd" d="M64.0812 0C69.0037 0 73 3.99647 73 8.91883V64.0812C73 69.0035 69.0035 73 64.0812 73H48.9012V45.4945H58.3969L60.2036 33.7146H48.9012V26.07C48.9012 22.8473 50.4799 19.7059 55.5424 19.7059H60.6813V9.67692C60.6813 9.67692 56.0175 8.88105 51.5588 8.88105C42.2502 8.88105 36.1661 14.5227 36.1661 24.7363V33.7146H25.8188V45.4945H36.1661V73H8.91883C3.99647 73 0 69.0035 0 64.0812V8.91883C0 3.99647 3.99632 0 8.91883 0H64.0812Z" fill="#E31B4D"/>
</g>
<defs>
<clipPath id="clip0_13_19">
<rect width="73" height="73" fill="white"/>
</clipPath>
</defs>
</svg>