<svg width="86" height="86" viewBox="0 0 86 86" fill="none" xmlns="http://www.w3.org/2000/svg">
<path d="M42.7725 25.3298C32.1552 25.3298 23.358 33.9753 23.358 44.7443C23.358 55.5132 32.0035 64.1587 42.7725 64.1587C53.5415 64.1587 62.187 55.3615 62.187 44.7443C62.187 34.127 53.3898 25.3298 42.7725 25.3298ZM42.7725 57.1817C35.9471 57.1817 30.3351 51.5697 30.3351 44.7443C30.3351 37.9189 35.9471 32.3069 42.7725 32.3069C49.5979 32.3069 55.2099 37.9189 55.2099 44.7443C55.2099 51.5697 49.5979 57.1817 42.7725 57.1817Z" fill="#E31B4D"/>
<path d="M62.9453 29.2734C65.3746 29.2734 67.3439 27.3041 67.3439 24.8748C67.3439 22.4455 65.3746 20.4762 62.9453 20.4762C60.516 20.4762 58.5467 22.4455 58.5467 24.8748C58.5467 27.3041 60.516 29.2734 62.9453 29.2734Z" fill="#E31B4D"/>
<path d="M74.321 13.4991C70.3774 9.40388 64.7654 7.28043 58.395 7.28043H27.1499C13.9541 7.28043 5.15695 16.0776 5.15695 29.2734V60.3668C5.15695 66.8889 7.28041 72.5009 11.5273 76.5961C15.6226 80.5397 21.0829 82.5115 27.3016 82.5115H58.2434C64.7654 82.5115 70.2257 80.388 74.1693 76.5961C78.2645 72.6526 80.388 67.0406 80.388 60.5185V29.2734C80.388 22.903 78.2645 17.4427 74.321 13.4991ZM73.7143 60.5185C73.7143 65.2205 72.0458 69.0123 69.3157 71.5908C66.5855 74.1693 62.7936 75.5344 58.2434 75.5344H27.3016C22.7513 75.5344 18.9594 74.1693 16.2293 71.5908C13.4991 68.8607 12.134 65.0688 12.134 60.3668V29.2734C12.134 24.7231 13.4991 20.9312 16.2293 18.2011C18.8077 15.6226 22.7513 14.2575 27.3016 14.2575H58.5467C63.097 14.2575 66.8889 15.6226 69.619 18.3527C72.1975 21.0829 73.7143 24.8748 73.7143 29.2734V60.5185Z" fill="#E31B4D"/>
</svg>