<svg width="79" height="79" viewBox="0 0 79 79" fill="none" xmlns="http://www.w3.org/2000/svg">
<g clip-path="url(#clip0_13_22)">
<path d="M39.5 0C17.6847 0 0 17.6847 0 39.5C0 61.3153 17.6847 79 39.5 79C61.3153 79 79 61.3153 79 39.5C79 17.6847 61.3153 0 39.5 0ZM59.5 35.8558C55.3056 35.8558 51.2244 34.4946 48.082 32.1913L48.057 47.8524C48.0544 50.7543 47.1668 53.5865 45.5128 55.9709C43.8587 58.3553 41.5169 60.1785 38.7996 61.1973C36.0824 62.2161 33.1191 62.3821 30.3052 61.6729C27.4912 60.9638 24.9604 59.4134 23.0505 57.2285C21.1406 55.0437 19.9425 52.3283 19.616 49.4448C19.2894 46.5613 19.85 43.6468 21.223 41.0902C22.5959 38.5336 24.7159 36.4565 27.3001 35.1361C29.8842 33.8157 32.8096 33.3147 35.6858 33.7001V41.3911C34.329 40.9902 32.8805 41.0268 31.5456 41.4955C30.2108 41.9642 29.0574 42.8412 28.249 44.0023C27.4407 45.1633 27.0184 46.5494 27.0421 47.964C27.0658 49.3785 27.5342 50.7497 28.381 51.883C29.2278 53.0164 30.4099 53.8543 31.7597 54.2781C33.1095 54.7018 34.5585 54.6898 35.901 54.2438C37.2436 53.7977 38.4117 52.9403 39.2396 51.7931C40.0675 50.6459 40.5132 49.2671 40.5134 47.8524V16.8697H48.425C48.425 18.3241 48.7114 19.7641 49.268 21.1077C49.8245 22.4514 50.6403 23.6722 51.6687 24.7005C52.697 25.7289 53.9179 26.5446 55.2615 27.1012C56.6051 27.6577 58.0452 27.9441 59.4995 27.9441L59.5 35.8558Z" fill="#E31B4D"/>
</g>
<defs>
<clipPath id="clip0_13_22">
<rect width="79" height="79" fill="white"/>
</clipPath>
</defs>
</svg>