<svg width="79" height="79" viewBox="0 0 79 79" fill="none" xmlns="http://www.w3.org/2000/svg">
<path d="M40.0069 35.3181L26.6253 16.5939H19.488L36.0645 39.7867L38.1511 42.7043L52.3396 62.5732H59.4768L42.0847 38.2357L40.0069 35.3181Z" fill="#E31B4D"/>
<path d="M69.651 3.29167H9.34905C6.00354 3.29167 3.29169 6.00352 3.29169 9.34903V69.651C3.29169 72.9965 6.00354 75.7083 9.34905 75.7083H69.651C72.9965 75.7083 75.7084 72.9965 75.7084 69.651V9.34903C75.7084 6.00352 72.9965 3.29167 69.651 3.29167ZM50.1497 65.8333L35.7897 45.3822L17.8127 65.8333H13.1667L33.7294 42.4471L13.1667 13.1667H28.8503L42.4453 32.5281L59.4791 13.1667H64.1248L44.5165 35.4698L65.8334 65.8333H50.1497Z" fill="#E31B4D"/>
</svg>