<svg width="86" height="86" viewBox="0 0 86 86" fill="none" xmlns="http://www.w3.org/2000/svg">
<path d="M85.1131 24.6686C85.1131 24.6686 84.2746 18.3449 81.6973 15.5606C78.4266 11.911 74.7636 11.8895 73.0839 11.6826C61.0519 10.75 43.0054 10.75 43.0054 10.75H42.9651C42.9651 10.75 24.9185 10.75 12.8892 11.6826C11.2096 11.8895 7.54919 11.911 4.27581 15.5606C1.70119 18.3449 0.86 24.6686 0.86 24.6686C0.86 24.6686 0 32.0888 0 39.5089V46.4642C0 53.8897 0.86 61.3073 0.86 61.3073C0.86 61.3073 1.6985 67.6283 4.27581 70.4071C7.54919 74.0568 11.8411 73.9466 13.7546 74.3282C20.6319 75.0323 42.9866 75.25 42.9866 75.25C42.9866 75.25 61.0519 75.2178 73.0839 74.2959C74.7636 74.0809 78.4266 74.0594 81.6973 70.4098C84.2719 67.6309 85.1131 61.3099 85.1131 61.3099C85.1131 61.3099 85.9731 53.8898 85.9731 46.4669V39.5116C85.9731 32.0887 85.1131 24.6686 85.1131 24.6686Z" fill="#E31B4D"/>
<path d="M32.25 26.875V59.125L59.125 43L32.25 26.875Z" fill="black"/>
</svg>